# xmcd
#
# Track frame offsets:
#	150
#	14835
#	31156
#	47062
#	64237
#	81785
#	99581
#	114262
#	130581
#	146539
#	163731
#	181364
#
# Disc length: 2651 seconds
#
# Revision: 0
# Processed by: cddbd v1.5.2PL0 Copyright (c) Steve Scherf et al.
# Submitted via: audiograbber 1.83.01
#
DISCID=9d0a590c
DTITLE=Various Artist - CB20096 Hot Hits Vol. 96
DYEAR=1900
DGENRE=Country
TTITLE0=Andy Griggs - I'll Go Crazy (Vocals)
TTITLE1=Alison Krauss - Forget About It (Vocals)
TTITLE2=Philip Claypool - Perfect World (Vocals)
TTITLE3=Kelly Willis - Not Forgotten You (Vocals)
TTITLE4=Lee Roy Parnell - She Won't Be Lonely Long (Vocals)
TTITLE5=Shedaisy - I Will...But (Vocals)
TTITLE6=Andy Griggs - I'll Go Crazy
TTITLE7=Alison Krauss - Forget About It
TTITLE8=Philip Claypool - Perfect World 
TTITLE9=Kelly Willis - Not Forgotten You
TTITLE10=Lee Roy Parnell - She Won't Be Lonely Long
TTITLE11=Shedaisy - I Will...But
EXTD=
EXTT0=
EXTT1=
EXTT2=
EXTT3=
EXTT4=
EXTT5=
EXTT6=
EXTT7=
EXTT8=
EXTT9=
EXTT10=
EXTT11=
PLAYORDER=
